<svg preserveAspectRatio="none" overflow="visible" style="display: block;" width="85" height="85" viewBox="0 0 85 85" fill="none" xmlns="http://www.w3.org/2000/svg">
<g id="css" clip-path="url(#clip0_0_64)">
<path id="Vector" d="M15.0521 6.85113e-06H69.9479C71.9251 -0.00190445 73.8833 0.396108 75.7103 1.17126C77.5373 1.94642 79.1974 3.0835 80.5955 4.51744C81.9936 5.95137 83.1023 7.65401 83.858 9.5279C84.6138 11.4018 85.0019 13.4102 85 15.438V69.562C85.0019 71.5899 84.6138 73.5982 83.858 75.4721C83.1023 77.346 81.9936 79.0486 80.5955 80.4826C79.1974 81.9165 77.5373 83.0536 75.7103 83.8287C73.8833 84.6039 71.9251 85.0019 69.9479 85H15.0521C13.0749 85.0019 11.1167 84.6039 9.2897 83.8287C7.46266 83.0536 5.80259 81.9165 4.4045 80.4826C3.00642 79.0486 1.89776 77.346 1.14198 75.4721C0.386205 73.5982 -0.00185684 71.5899 6.67985e-06 69.562V15.438C-0.00185684 13.4102 0.386205 11.4018 1.14198 9.5279C1.89776 7.65401 3.00642 5.95137 4.4045 4.51744C5.80259 3.0835 7.46266 1.94642 9.2897 1.17126C11.1167 0.396108 13.0749 -0.00190445 15.0521 6.85113e-06V6.85113e-06Z" fill="#2965F1"/>
<g id="Group 2">
<path id="Vector_2" d="M20.8059 35.0403L21.6423 44.3733H42.5279V35.0403H20.8059ZM19.125 16.15L19.9734 25.4831H42.5279V16.15H19.125V16.15ZM42.5279 59.2792L42.487 59.2901L32.0929 56.4835L31.4283 49.04H22.0593L23.3668 63.6943L42.485 69.0013L42.5279 68.9896V59.2792Z" fill="#EBEBEB"/>
<path id="Vector_3" d="M64.1903 35.0403L65.875 16.15H42.4958V25.4831H55.6468L54.7976 35.0403H42.4958V44.3733H53.9884L52.9048 56.4776L42.4955 59.2871V68.9969L61.6288 63.6943L61.7691 62.1174L63.9626 37.5464L64.1903 35.0403V35.0403Z" fill="white"/>
</g>
</g>
<defs>
<clipPath id="clip0_0_64">
<rect width="85" height="85" fill="white"/>
</clipPath>
</defs>
</svg>
