<svg preserveAspectRatio="none" overflow="visible" style="display: block;" width="79.8188" height="51.4358" viewBox="0 0 79.8188 51.4358" fill="none" xmlns="http://www.w3.org/2000/svg">
<g id="g1844">
<path id="path1838" d="M39.95 2.19345e-05C43.3603 2.19345e-05 46.7707 0.406949 50.0999 1.30219C53.429 2.19744 56.5958 3.49961 59.6814 5.04594C62.7669 6.67365 65.6901 8.62691 68.3697 10.8243C71.0492 13.1031 73.404 15.5447 75.5152 18.2304C75.84 18.556 76.246 19.1257 76.7332 19.7768C77.2204 20.4278 77.6264 21.0789 78.1136 21.8114C78.6008 22.5439 79.0068 23.2763 79.3316 24.0088C79.6564 24.7413 79.8187 25.311 79.8187 25.7179C79.8187 26.1249 79.6564 26.7759 79.3316 27.427C79.0068 28.1595 78.6008 28.892 78.1136 29.6244C77.6264 30.2755 77.2204 31.008 76.7332 31.6591C76.246 32.3102 75.84 32.8799 75.5152 33.2054C73.404 35.8911 71.0492 38.3327 68.3697 40.6115C65.6901 42.8089 62.7669 44.7622 59.7626 46.3899C56.677 47.9362 53.429 49.2384 50.0999 50.0523C46.7707 50.9475 43.3603 51.4358 39.95 51.4358C36.296 51.4358 32.7233 50.9475 29.2317 49.9709C25.7401 48.9943 22.411 47.6107 19.2442 45.9016C16.0774 44.1111 13.1543 42.0765 10.3935 39.6349C7.71392 37.2747 5.27794 34.589 3.16677 31.7405C2.92317 31.4149 2.59837 31.008 2.27358 30.4383C1.94878 29.95 1.62398 29.3803 1.21799 28.8106C0.893191 28.2409 0.649594 27.6712 0.405996 27.1015C0.162399 26.5318 0 26.0435 0 25.7179C0 25.311 0.162399 24.8227 0.405996 24.3344C0.649594 23.7647 0.893191 23.195 1.21799 22.6253C1.54278 22.0556 1.94878 21.4859 2.27358 20.9975C2.59837 20.4278 2.92317 20.0209 3.16677 19.6954C5.27794 16.8469 7.71392 14.1611 10.3935 11.801C13.1543 9.35938 16.0774 7.24336 19.2442 5.53426C22.411 3.74377 25.7401 2.4416 29.2317 1.46497C32.7233 0.488337 36.296 2.19345e-05 39.95 2.19345e-05Z" fill="white"/>
<path id="path1840" d="M39.95 5.69702C42.6296 5.69702 45.2279 6.26672 47.6639 7.32473C50.0999 8.30136 52.2111 9.76631 53.9974 11.5568C55.7838 13.4287 57.2454 15.5447 58.301 17.9049C59.3566 20.3465 59.8438 22.9508 59.8438 25.7179C59.8438 28.485 59.3566 31.0894 58.301 33.4496C57.2454 35.8911 55.7838 38.0072 53.9974 39.879C52.2111 41.6695 50.0999 43.0531 47.6639 44.1111C45.2279 45.1691 42.6296 45.7388 39.95 45.7388C37.1892 45.7388 34.5909 45.1691 32.1549 44.1111C29.7189 43.0531 27.6077 41.6695 25.8213 39.879C24.035 38.0886 22.5734 35.9725 21.5178 33.5309C20.4622 31.0894 19.975 28.485 19.975 25.7179C19.975 22.9508 20.4622 20.3465 21.5178 17.9049C22.5734 15.5447 24.035 13.4287 25.8213 11.5568C27.6077 9.76631 29.7189 8.30136 32.1549 7.32473C34.5909 6.26672 37.1892 5.69702 39.95 5.69702ZM48.6383 18.2304C49.1255 18.2304 49.6127 18.0677 50.0999 17.9049C50.5059 17.7421 50.9119 17.4166 51.2367 17.091C51.5615 16.7655 51.8863 16.3586 52.0487 15.9516C52.2923 15.4633 52.3735 14.975 52.3735 14.4867C52.3735 13.9984 52.2923 13.51 52.0487 13.0217C51.8863 12.5334 51.5615 12.1265 51.2367 11.8009C50.9119 11.4754 50.5059 11.2312 50.0999 11.0685C49.6127 10.8243 49.1255 10.7429 48.6383 10.7429C48.0699 10.7429 47.5827 10.8243 47.1767 11.0685C46.6895 11.2312 46.3647 11.4754 45.9587 11.8009C45.6339 12.1265 45.3903 12.5334 45.2279 13.0217C44.9843 13.51 44.9031 13.9984 44.9031 14.4867C44.9031 14.975 44.9843 15.4633 45.2279 15.9516C45.3903 16.3586 45.6339 16.7655 45.9587 17.091C46.3647 17.4166 46.6895 17.7421 47.1767 17.9049C47.5827 18.0677 48.0699 18.2304 48.6383 18.2304Z" fill="#7C330C"/>
<path id="path1842" d="M49.9375 25.7179C49.9375 27.1015 49.6127 28.4036 49.1255 29.6244C48.5571 30.8452 47.9075 31.9032 46.9331 32.7985C46.0399 33.6937 44.9843 34.4262 43.7664 34.9145C42.5484 35.4842 41.2492 35.7284 39.95 35.7284C38.5696 35.7284 37.2704 35.4842 36.0524 34.9145C34.8344 34.4262 33.7789 33.6937 32.8857 32.7985C31.9925 31.9032 31.2617 30.8452 30.6933 29.6244C30.2061 28.4036 29.8813 27.1015 29.8813 25.7179C29.8813 24.3344 30.2061 23.0322 30.6933 21.8114C31.2617 20.5906 31.9925 19.5326 32.8857 18.6374C33.7789 17.7421 34.8344 17.0096 36.0524 16.5213C37.2704 15.9516 38.5696 15.7075 39.95 15.7075C41.2492 15.7075 42.5484 15.9516 43.7664 16.5213C44.9843 17.0096 46.0399 17.7421 46.9331 18.6374C47.9075 19.5326 48.5571 20.5906 49.1255 21.8114C49.6127 23.0322 49.9375 24.3344 49.9375 25.7179Z" fill="black"/>
</g>
</svg>
